<svg width="44" height="44" xmlns="http://www.w3.org/2000/svg">
    <g fill="none" fill-rule="evenodd">
        <path d="M22 11c-4.424 0-8 3.7-8 8.274 0 3.7 5.365 11.195 8 13.726 2.541-2.531 8-10.027 8-13.726C30 14.7 26.424 11 22 11zm0 4.583c1.93 0 3.556 1.677 3.556 3.667 0 1.99-1.626 3.667-3.556 3.667-1.93 0-3.556-1.677-3.556-3.667 0-1.99 1.626-3.667 3.556-3.667z"
              fill="#000"/>
        <path d="M22 44C9.85 44 0 34.15 0 22S9.85 0 22 0s22 9.85 22 22-9.85 22-22 22zm0-2c11.046 0 20-8.954 20-20S33.046 2 22 2 2 10.954 2 22s8.954 20 20 20z"
              fill="#2B2B2C" fill-rule="nonzero"/>
    </g>
</svg>