<svg width="44" height="44" viewBox="0 0 44 44" xmlns="http://www.w3.org/2000/svg">
    <g fill-rule="nonzero" fill="none">
        <circle fill="#ffffff" cx="22" cy="22" r="21.5"/>
        <g fill="#212721">
            <path d="M6 28.521h29.018v1H6zM37.37 24.77c-.039-.238-.085-.468-.136-.695-1.107-4.876-2.102-8.259-7.155-8.259h-6.746l2.286-2.064L22.442 11l-.639.72 2.36 2.047-2.26 2.05h-15.9v11.19h29.43a1.967 1.967 0 0 0 1.49-.676c.372-.43.536-1 .448-1.56zm-24.548-2.798a.455.455 0 0 1-.457.442H8.312a.45.45 0 0 1-.321-.133.44.44 0 0 1-.129-.32l.014-3.052c0-.119.049-.233.135-.316a.45.45 0 0 1 .322-.126h4.052a.45.45 0 0 1 .32.133c.085.085.132.2.13.32l-.013 3.052zm6.943-.021a.455.455 0 0 1-.458.443h-4.053a.455.455 0 0 1-.45-.452l.014-3.052a.455.455 0 0 1 .457-.444h4.06c.252 0 .457.203.457.453l-.027 3.052zm5.199 0a.455.455 0 0 1-.457.443h-2.321a.455.455 0 0 1-.45-.452l.013-3.052a.455.455 0 0 1 .457-.444h2.33c.252 0 .457.203.457.453l-.03 3.052zm9.226.754h-5.33a.446.446 0 0 1-.448-.444V18.9c0-.119.046-.232.13-.316a.45.45 0 0 1 .318-.13l3.026-.032a2.116 2.116 0 0 1 1.73.856c.59.822.68 1.686 1.013 2.865a.42.42 0 0 1-.066.396.43.43 0 0 1-.37.164l-.003.003z"/>
        </g>

        <path d="M22 44C9.85 44 0 34.15 0 22S9.85 0 22 0s22 9.85 22 22-9.85 22-22 22zm0-2c11.046 0 20-8.954 20-20S33.046 2 22 2 2 10.954 2 22s8.954 20 20 20z"
              fill="#2B2B2C"/>
    </g>
</svg>